<?xml version="1.0" standalone="no"?>
<!DOCTYPE svg PUBLIC "-//W3C//DTD SVG 20010904//EN"
 "http://www.w3.org/TR/2001/REC-SVG-20010904/DTD/svg10.dtd">
<svg version="1.0" xmlns="http://www.w3.org/2000/svg"
 width="1280.000000pt" height="720.000000pt" viewBox="0 0 1280.000000 720.000000"
 preserveAspectRatio="xMidYMid meet">
<metadata>
Xml created by Rakesh@rsultimate+  http://www.rsultimate.000webhostapp.com
</metadata>
<g transform="translate(0.000000,720.000000) scale(0.100000,-0.100000)"
fill="#000000" stroke="none">
<path d="M0 3600 l0 -3600 6400 0 6400 0 0 3600 0 3600 -6400 0 -6400 0 0
-3600z m1207 3064 c-3 -4 1 -21 10 -38 21 -40 26 -85 26 -231 -1 -185 -3 -215
-16 -215 -9 0 -9 -2 -1 -8 12 -7 7 -75 -5 -68 -6 4 -10 -13 -12 -56 0 -10 -4
-18 -9 -18 -5 0 -7 -6 -4 -13 3 -8 -1 -27 -7 -43 -7 -16 -12 -32 -11 -36 1 -5
-3 -8 -9 -8 -6 0 -8 -7 -5 -16 6 -16 -13 -74 -24 -74 -3 0 -7 -10 -7 -22 -1
-13 -7 -24 -13 -26 -5 -2 -8 -8 -4 -13 3 -5 0 -9 -6 -9 -6 0 -8 -4 -5 -10 3
-5 2 -10 -4 -10 -6 0 -8 -6 -5 -13 2 -7 -4 -22 -14 -33 -10 -10 -17 -25 -14
-32 2 -6 -3 -15 -12 -18 -9 -3 -13 -10 -10 -15 3 -5 1 -9 -5 -9 -6 0 -8 -7 -5
-15 4 -8 -1 -17 -9 -21 -9 -3 -13 -12 -10 -21 4 -11 2 -14 -5 -9 -8 5 -12 0
-12 -14 0 -11 -7 -23 -15 -26 -8 -4 -12 -10 -9 -15 3 -5 0 -9 -6 -9 -6 0 -9
-4 -5 -9 3 -5 -1 -16 -9 -24 -8 -8 -12 -17 -9 -21 4 -3 1 -6 -6 -6 -7 0 -9 -4
-6 -10 3 -5 1 -10 -5 -10 -6 0 -8 -4 -5 -10 3 -5 1 -10 -5 -10 -6 0 -8 -4 -5
-10 3 -5 1 -10 -5 -10 -6 0 -9 -4 -5 -10 3 -5 -2 -18 -12 -28 -10 -10 -20 -27
-21 -37 -2 -11 -8 -22 -13 -23 -5 -2 -7 -8 -3 -13 3 -5 0 -9 -6 -9 -6 0 -8 -4
-5 -10 3 -5 2 -10 -4 -10 -6 0 -8 -6 -5 -13 3 -8 -2 -19 -10 -26 -8 -7 -12
-19 -9 -27 3 -7 -2 -17 -11 -20 -9 -3 -14 -10 -11 -14 3 -5 1 -11 -5 -15 -6
-4 -8 -11 -5 -16 4 -5 3 -9 -2 -9 -4 0 -9 -12 -10 -27 0 -15 -6 -29 -12 -31
-6 -2 -9 -8 -5 -13 3 -5 1 -9 -4 -9 -4 0 -9 -54 -9 -120 -1 -70 3 -120 9 -120
5 0 7 -4 4 -9 -3 -5 1 -12 10 -15 9 -3 14 -12 11 -19 -2 -6 6 -21 18 -33 12
-11 30 -32 40 -47 9 -15 21 -24 26 -21 5 3 9 -1 9 -8 0 -17 95 -69 175 -96 33
-11 121 -37 195 -57 299 -79 461 -135 545 -187 35 -23 100 -82 97 -90 -1 -5 2
-8 8 -8 6 0 9 -3 9 -7 -3 -21 2 -33 15 -33 12 0 10 15 -10 78 -40 124 -42 133
-55 227 -10 80 -7 223 6 305 18 108 84 210 136 210 l26 0 8 -138 c3 -76 4
-155 0 -175 -5 -24 -3 -37 3 -37 6 0 9 -9 7 -20 -2 -11 1 -20 7 -20 6 0 8 -10
4 -25 -4 -15 -2 -25 4 -25 6 0 8 -4 5 -10 -3 -5 -2 -10 4 -10 6 0 8 -6 5 -14
-3 -7 2 -20 10 -29 8 -8 12 -17 9 -21 -4 -3 -1 -6 6 -6 7 0 10 -4 6 -9 -3 -5
1 -16 9 -24 8 -8 12 -17 9 -21 -3 -3 2 -8 11 -12 9 -3 13 -10 10 -15 -3 -5 2
-12 10 -15 9 -3 14 -10 11 -14 -2 -4 7 -16 20 -26 14 -10 25 -23 25 -29 0 -13
85 -98 96 -96 5 1 9 -3 9 -8 0 -9 48 -51 59 -51 3 0 22 -18 42 -40 20 -22 40
-37 45 -34 5 3 8 0 7 -8 -2 -7 7 -14 20 -16 12 -2 20 -8 17 -13 -4 -5 2 -12
12 -16 10 -4 28 -20 41 -35 13 -15 27 -26 32 -23 4 3 13 -2 20 -10 7 -8 9 -15
5 -15 -4 0 26 -28 67 -61 40 -34 75 -66 77 -71 2 -5 14 -13 28 -19 13 -5 21
-14 18 -19 -3 -6 3 -14 15 -18 12 -4 22 -12 23 -17 1 -6 5 -9 10 -7 4 1 7 -4
7 -11 0 -16 46 -58 54 -50 3 4 6 1 6 -5 0 -6 24 -35 52 -64 29 -29 53 -56 53
-59 0 -4 14 -20 32 -36 18 -17 30 -33 27 -36 -3 -3 6 -13 20 -22 14 -10 24
-21 21 -25 -3 -4 2 -10 10 -14 8 -3 15 -12 15 -21 0 -8 5 -15 10 -15 6 0 10
-6 10 -14 0 -8 7 -17 16 -20 8 -3 12 -10 9 -16 -3 -5 -1 -10 4 -10 6 0 11 -7
11 -15 0 -8 5 -15 11 -15 5 0 7 -5 4 -10 -3 -6 1 -13 9 -16 9 -3 16 -12 16
-20 0 -8 9 -22 20 -31 11 -10 20 -24 20 -32 0 -8 7 -22 15 -31 9 -10 18 -28
20 -41 3 -13 9 -25 15 -27 6 -2 8 -8 4 -13 -3 -5 0 -9 6 -9 6 0 8 -4 5 -10 -3
-5 -1 -10 5 -10 6 0 9 -4 6 -9 -3 -5 1 -14 10 -21 8 -7 13 -19 10 -27 -3 -7
-1 -13 5 -13 6 0 7 -4 4 -10 -3 -5 -1 -10 5 -10 6 0 8 -5 5 -10 -3 -5 -1 -10
5 -10 7 0 10 -7 6 -15 -3 -8 0 -15 6 -15 6 0 8 -3 5 -7 -4 -3 0 -15 10 -25 9
-10 16 -32 16 -48 0 -17 4 -30 9 -30 5 0 6 -4 3 -10 -3 -6 -1 -10 5 -10 7 0
10 -7 6 -15 -3 -8 -1 -15 4 -15 5 0 7 -6 4 -14 -3 -8 0 -17 5 -21 6 -3 9 -11
6 -16 -4 -5 1 -17 10 -26 9 -9 14 -24 12 -34 -3 -11 -1 -19 5 -19 6 0 7 -7 4
-16 -4 -9 -1 -23 6 -32 15 -17 18 -142 4 -142 -5 0 -7 -3 -3 -6 3 -3 -7 -19
-23 -34 -16 -15 -26 -30 -23 -34 3 -3 54 20 114 50 108 54 153 68 130 41 -6
-8 -8 -17 -4 -20 3 -4 1 -7 -6 -7 -7 0 -10 -4 -6 -9 3 -5 -1 -16 -9 -24 -8 -8
-12 -17 -9 -21 4 -3 1 -6 -6 -6 -7 0 -10 -4 -7 -8 3 -5 -3 -18 -12 -28 -10
-10 -21 -27 -25 -36 -3 -10 -11 -18 -17 -18 -6 0 -9 -4 -6 -9 3 -5 -5 -16 -19
-25 -14 -9 -24 -20 -23 -24 4 -11 -318 -330 -337 -334 -12 -2 -19 5 -21 22 -3
14 -7 32 -11 40 -9 22 -12 31 -19 70 -3 19 -12 50 -20 69 -8 19 -12 36 -10 38
3 3 -2 26 -10 51 -8 26 -18 60 -21 77 -3 16 -11 42 -19 57 -8 16 -12 28 -10
28 5 0 -14 62 -31 100 -3 8 -7 22 -9 30 -2 9 -19 55 -38 103 -120 297 -273
538 -479 754 -238 249 -499 427 -801 547 -250 100 -447 139 -771 156 -264 13
-421 62 -510 158 -22 24 -44 64 -75 137 -48 113 -61 334 -27 473 16 68 58 152
75 152 18 -1 32 -18 26 -33 -4 -10 -1 -17 6 -17 7 0 10 -6 7 -14 -3 -8 -2 -16
3 -18 11 -4 16 -80 6 -97 -5 -7 -4 -16 2 -20 12 -7 19 -87 9 -97 -11 -11 -8
-44 4 -44 5 0 9 -8 8 -17 -1 -10 1 -26 6 -35 4 -10 8 -29 9 -43 0 -14 5 -25 9
-25 5 0 5 -4 2 -10 -3 -5 -1 -10 5 -10 6 0 8 -4 5 -10 -3 -5 -1 -10 5 -10 6 0
9 -4 5 -9 -3 -6 4 -15 15 -21 11 -6 19 -16 17 -22 -1 -6 8 -17 20 -23 13 -7
20 -15 17 -18 -4 -4 2 -10 12 -14 10 -4 24 -12 29 -19 6 -7 34 -22 63 -33 73
-29 191 -29 269 0 61 23 98 47 53 35 -57 -14 -197 -18 -252 -7 -108 23 -204
116 -242 236 -9 28 -23 136 -31 239 -19 237 -27 257 -150 387 -107 113 -149
190 -167 302 -24 157 45 397 90 310 5 -10 7 -24 5 -30 -3 -7 0 -13 5 -13 5 0
14 -18 20 -40 7 -29 7 -40 -2 -40 -7 0 -6 -4 3 -9 8 -5 11 -16 7 -29 -4 -12 1
-33 14 -55 11 -19 18 -42 14 -51 -4 -10 0 -18 12 -23 23 -8 45 -29 38 -35 -10
-11 64 -32 111 -32 97 0 183 76 317 279 53 80 177 317 182 348 1 7 7 21 13 32
6 11 20 54 32 95 13 41 26 86 31 100 8 24 33 135 44 195 3 17 8 55 11 85 10
109 27 160 53 160 9 0 13 -3 9 -6z m3143 -29 c0 -8 5 -15 11 -15 7 0 9 -10 5
-25 -4 -16 -2 -25 5 -25 8 0 10 -15 7 -45 -3 -26 -1 -45 4 -45 6 0 7 -11 4
-26 -4 -14 -2 -32 4 -39 6 -7 11 -31 13 -54 1 -22 6 -41 11 -41 4 0 5 -7 2
-16 -4 -9 -1 -23 5 -30 6 -7 8 -18 5 -23 -4 -5 -2 -12 4 -16 6 -4 8 -11 5 -16
-4 -5 -1 -9 6 -9 6 0 9 -8 6 -20 -3 -11 -1 -20 5 -20 5 0 6 -9 3 -20 -3 -11
-2 -20 3 -20 12 0 34 -59 26 -71 -3 -5 -1 -9 4 -9 11 0 33 -55 26 -63 -2 -2 2
-10 11 -17 8 -7 15 -18 15 -24 0 -6 18 -46 39 -88 21 -42 36 -79 33 -82 -3 -3
0 -6 6 -6 6 0 14 -9 17 -21 4 -12 14 -29 23 -38 21 -22 56 -83 54 -93 -1 -5 2
-8 7 -8 5 0 20 -17 32 -37 13 -21 31 -44 41 -51 10 -7 18 -17 18 -23 0 -11 37
-49 48 -49 4 0 15 -8 24 -17 63 -67 138 -78 214 -32 51 31 86 101 97 194 7 59
29 148 40 163 7 9 15 6 34 -12 14 -14 26 -31 27 -38 1 -7 8 -24 15 -37 7 -12
11 -32 8 -42 -3 -10 0 -19 5 -19 7 0 8 -14 5 -35 -3 -19 -1 -37 4 -40 12 -8
12 -72 0 -79 -5 -4 -7 -19 -5 -35 3 -16 -3 -47 -12 -68 -10 -21 -18 -40 -19
-43 -8 -32 -18 -50 -26 -50 -5 0 -8 -4 -7 -9 4 -11 -41 -66 -127 -153 -38 -40
-70 -78 -72 -86 -1 -8 -5 -18 -10 -21 -9 -7 -13 -21 -20 -73 -3 -21 -8 -38
-12 -38 -3 0 -6 -27 -5 -60 0 -33 -2 -60 -5 -60 -3 0 -5 -31 -4 -70 2 -38 -1
-70 -6 -70 -5 0 -7 -18 -4 -40 3 -22 2 -40 -3 -40 -5 0 -10 -12 -11 -27 0 -15
-6 -29 -12 -31 -5 -2 -8 -9 -5 -16 3 -8 -1 -20 -8 -27 -7 -8 -14 -21 -16 -29
-2 -8 -11 -22 -21 -30 -10 -8 -21 -23 -24 -32 -4 -10 -13 -18 -22 -18 -8 0
-15 -4 -15 -9 0 -5 -13 -14 -30 -21 -16 -7 -30 -16 -30 -20 0 -23 -186 -37
-282 -21 -69 11 -59 -2 20 -27 120 -39 235 -25 331 40 39 28 106 107 102 122
-1 4 5 14 14 22 8 9 15 23 16 32 0 9 2 24 4 32 15 61 25 139 28 220 3 53 11
115 18 138 11 38 16 43 38 40 17 -2 31 -13 40 -33 8 -16 18 -32 22 -35 5 -3
10 -21 11 -40 2 -19 7 -38 12 -41 4 -4 10 -35 13 -70 3 -35 7 -88 10 -116 3
-29 1 -53 -4 -53 -4 0 -7 -20 -6 -45 0 -25 -3 -45 -7 -45 -4 0 -6 -9 -3 -20 3
-11 1 -20 -5 -20 -6 0 -8 -9 -5 -20 3 -12 0 -20 -6 -20 -7 0 -10 -4 -7 -9 4
-5 1 -22 -6 -38 -6 -15 -11 -31 -10 -35 1 -5 -3 -8 -9 -8 -5 0 -7 -4 -4 -10 9
-15 -23 -70 -66 -112 -21 -21 -41 -38 -45 -38 -4 0 -15 -6 -23 -13 -59 -50
-261 -84 -632 -107 -144 -9 -252 -26 -359 -56 -97 -28 -205 -68 -212 -78 -4
-6 -8 -8 -8 -4 0 10 -60 -12 -60 -23 0 -5 -7 -9 -15 -9 -19 0 -94 -37 -113
-56 -7 -8 -20 -14 -29 -14 -15 0 -75 -38 -81 -52 -2 -4 -10 -8 -18 -8 -12 0
-110 -62 -124 -79 -3 -3 -17 -12 -31 -19 -15 -8 -38 -25 -52 -38 -24 -22 -77
-34 -77 -16 0 8 -69 88 -219 256 l-103 116 24 23 c13 12 62 53 108 91 47 39
97 82 112 98 15 15 30 28 34 28 19 0 204 172 204 191 0 5 4 9 9 9 11 0 64 81
96 148 23 48 40 111 37 145 0 9 3 17 8 17 5 0 11 77 12 173 l3 172 31 -2 c34
-3 110 -66 99 -83 -3 -5 -1 -10 5 -10 7 0 10 -7 6 -15 -3 -8 -1 -15 5 -15 6 0
9 -7 6 -15 -4 -8 -1 -17 4 -21 6 -3 9 -17 6 -30 -2 -13 0 -24 4 -24 5 0 6 -25
3 -55 -5 -38 -3 -55 5 -55 7 0 11 -19 11 -50 0 -31 -4 -50 -11 -50 -8 0 -10
-17 -6 -55 3 -30 2 -55 -2 -55 -4 0 -6 -13 -3 -30 3 -19 0 -30 -7 -30 -7 0
-10 -4 -6 -9 3 -5 1 -13 -5 -16 -6 -4 -8 -15 -5 -26 4 -11 2 -19 -5 -19 -6 0
-9 -4 -6 -8 7 -12 -15 -82 -26 -82 -5 0 -6 -4 -3 -10 3 -5 1 -10 -4 -10 -6 0
-10 -3 -9 -7 1 -5 -3 -18 -10 -29 -25 -47 3 -28 79 51 50 52 99 93 132 109 63
31 356 128 532 176 254 69 355 131 418 259 29 59 32 73 31 155 -1 50 -7 105
-14 121 -6 17 -14 41 -16 54 -3 13 -13 43 -23 65 -9 23 -26 61 -36 86 -10 25
-25 52 -32 61 -7 8 -13 23 -13 31 0 9 -7 21 -15 28 -8 7 -15 18 -15 25 0 7
-29 63 -65 126 -36 62 -67 121 -71 131 -3 10 -10 18 -15 18 -5 0 -9 7 -9 16 0
9 -7 28 -15 42 -8 15 -19 38 -25 52 -5 14 -14 32 -19 40 -13 22 -34 73 -37 91
-2 9 -9 29 -15 45 -15 36 -14 30 -23 84 -5 25 -13 53 -18 64 -31 58 -30 500 1
543 18 25 51 30 51 8z m7910 -1555 c184 -35 355 -206 390 -390 15 -78 13
-2743 -1 -2812 -38 -179 -191 -335 -374 -383 -52 -13 -332 -15 -2421 -15
-1495 0 -2380 4 -2413 10 -169 32 -322 171 -383 348 l-23 67 0 1380 c0 1323 1
1382 19 1439 57 182 206 322 376 355 65 13 4764 14 4830 1z m-6268 -1266 c101
-31 186 -83 336 -208 l149 -124 6 -61 c7 -87 57 -184 161 -316 105 -134 156
-227 163 -298 6 -69 -29 -180 -102 -318 -31 -57 -78 -149 -104 -204 -32 -64
-65 -114 -91 -140 -23 -22 -63 -69 -88 -105 -25 -36 -67 -92 -93 -125 -29 -38
-49 -75 -53 -100 -15 -88 -18 -95 -46 -110 -41 -21 -67 -19 -96 10 -14 14 -27
25 -29 25 -2 0 -15 -19 -29 -42 -17 -30 -30 -75 -40 -145 -15 -100 -39 -167
-69 -192 -10 -8 -18 -40 -22 -89 -9 -108 -21 -148 -52 -171 -33 -27 -50 -26
-58 2 -4 12 -54 116 -111 230 -57 115 -109 228 -115 253 -6 24 -15 44 -19 44
-13 0 -38 -77 -65 -196 -26 -120 -43 -169 -75 -214 -17 -24 -20 -44 -20 -152
0 -164 -6 -200 -34 -196 -42 6 -97 111 -158 298 -49 151 -58 188 -61 270 -8
174 -95 351 -248 500 -42 41 -98 88 -125 104 -49 29 -50 31 -186 310 -160 327
-178 383 -178 541 l0 111 233 321 232 322 67 31 c98 46 237 76 548 120 293 41
371 44 472 14z m-4236 -269 c16 -8 39 -15 52 -15 12 0 22 -4 22 -10 0 -5 11
-12 24 -16 13 -3 55 -21 92 -40 37 -19 74 -34 81 -34 7 0 13 -4 13 -9 0 -5 19
-19 41 -31 23 -11 72 -41 108 -64 36 -24 70 -45 75 -47 5 -2 25 -19 44 -36 20
-18 42 -33 49 -33 7 0 13 -6 13 -14 0 -8 4 -16 9 -18 15 -5 199 -187 194 -191
-2 -3 7 -14 21 -25 14 -10 23 -22 20 -25 -3 -3 3 -12 15 -19 12 -7 21 -19 21
-26 0 -7 7 -15 15 -18 8 -4 13 -10 10 -14 -3 -4 2 -11 11 -14 8 -3 13 -10 10
-14 -3 -5 4 -18 14 -30 11 -12 20 -26 20 -33 0 -12 40 -72 52 -77 5 -2 6 -8 3
-12 -3 -5 4 -19 15 -30 12 -12 22 -30 23 -41 1 -10 5 -19 10 -19 4 0 6 -4 2
-9 -3 -6 1 -13 9 -18 8 -4 16 -17 18 -28 1 -11 9 -26 16 -34 7 -7 11 -20 8
-27 -3 -8 -1 -14 4 -14 5 0 7 -6 4 -13 -2 -7 5 -24 16 -37 12 -14 18 -31 14
-42 -3 -10 0 -18 6 -18 6 0 8 -4 5 -10 -3 -5 -1 -10 5 -10 6 0 9 -4 5 -9 -3
-5 -1 -13 5 -16 6 -4 8 -15 5 -26 -4 -10 -2 -19 3 -19 6 0 8 -10 4 -22 -4 -16
-2 -19 8 -13 10 6 12 4 7 -8 -3 -9 -2 -17 4 -19 5 -2 11 -19 13 -38 2 -19 9
-48 15 -65 7 -16 10 -37 8 -47 -3 -10 -1 -18 5 -18 5 0 6 -10 3 -21 -4 -12 -2
-24 4 -29 7 -3 13 -28 14 -53 1 -26 5 -47 10 -47 4 0 4 -18 1 -40 -4 -24 -3
-40 3 -40 6 0 11 -18 12 -40 5 -91 6 -100 15 -100 5 0 6 -31 3 -69 -3 -38 -3
-72 1 -76 7 -6 9 -44 15 -267 1 -49 5 -88 10 -88 4 0 7 -24 7 -54 0 -40 -6
-60 -22 -82 -35 -44 -57 -64 -70 -64 -7 -1 -31 -7 -53 -15 -111 -41 -346 -40
-441 1 -118 50 -126 66 -131 258 -2 78 -10 197 -17 266 -8 69 -14 161 -15 205
-1 44 -6 105 -11 135 -6 30 -12 82 -15 115 -8 97 -17 159 -23 170 -4 6 -8 21
-9 35 -9 74 -102 295 -153 362 -113 150 -205 230 -359 314 -42 23 -89 58 -106
78 -38 48 -44 101 -44 430 l-1 259 39 -7 c21 -3 51 -13 67 -21z m2121 -260 c0
-172 -4 -285 -10 -285 -5 0 -7 -14 -3 -30 4 -23 0 -36 -14 -50 -11 -11 -17
-20 -12 -20 4 0 -1 -5 -10 -11 -10 -5 -18 -16 -18 -24 0 -8 -10 -20 -22 -26
-13 -7 -25 -15 -28 -18 -11 -14 -143 -72 -157 -69 -14 3 -37 43 -86 148 -65
142 -89 190 -98 195 -5 4 -9 13 -9 21 0 7 -20 55 -44 106 -25 51 -43 95 -40
99 16 27 291 169 409 212 99 36 98 35 121 36 l22 1 -1 -285z m-1957 -928 c36
-17 83 -45 105 -61 21 -17 40 -30 41 -29 2 1 25 -21 52 -48 27 -27 46 -49 43
-49 -3 0 3 -7 13 -15 11 -8 16 -15 10 -15 -5 0 0 -7 11 -16 11 -8 18 -17 16
-20 -5 -8 21 -64 30 -64 5 0 5 -7 2 -17 -5 -12 -3 -14 7 -8 10 6 12 4 7 -8 -3
-10 -2 -17 3 -17 5 0 7 -9 5 -20 -2 -11 0 -20 5 -20 4 0 6 -18 3 -40 -4 -26
-2 -40 6 -40 6 0 11 -7 11 -15 0 -29 -39 1 -168 127 -191 187 -261 275 -307
384 l-15 36 28 -7 c15 -3 56 -21 92 -38z"/>
<path d="M1925 4120 c10 -11 19 -20 21 -20 1 0 0 9 -3 20 -3 11 -12 20 -21 20
-13 0 -12 -3 3 -20z"/>
<path d="M10853 4330 c3 -8 26 -64 50 -125 65 -159 63 -149 20 -164 -83 -29
-284 -133 -383 -198 -108 -71 -255 -190 -325 -262 l-39 -41 81 30 c104 37 258
77 396 100 116 20 394 46 402 38 20 -20 63 -347 74 -563 21 -398 -34 -768
-159 -1088 -22 -57 -40 -107 -40 -111 0 -5 613 301 637 319 2 1 -4 78 -12 171
-38 430 -113 789 -229 1095 -24 63 -51 129 -60 148 l-18 33 39 -6 c21 -3 63
-8 93 -11 64 -7 257 -57 315 -80 22 -10 71 -32 109 -51 38 -19 70 -33 71 -32
6 6 226 533 231 553 5 21 0 24 -108 44 -260 49 -543 47 -783 -5 -194 -43 -175
-45 -220 23 -39 59 -120 170 -138 188 -7 7 -8 5 -4 -5z"/>
<path d="M7977 4208 c-65 -172 -112 -359 -143 -573 -25 -168 -25 -537 -1 -691
36 -227 85 -406 169 -622 22 -57 38 -106 35 -109 -5 -4 -201 21 -257 34 -18 4
-22 3 -15 -6 17 -18 229 -136 298 -166 55 -24 67 -35 92 -79 35 -63 141 -223
153 -230 5 -3 -1 45 -13 107 -12 62 -18 113 -14 115 4 2 50 -6 102 -17 150
-33 345 -44 529 -32 157 11 328 36 339 49 3 4 32 144 63 312 32 168 60 315 63
328 4 19 -12 10 -83 -48 -277 -223 -615 -358 -943 -377 l-109 -6 -6 29 c-33
163 -43 678 -18 889 41 336 115 583 248 819 30 54 52 102 47 106 -4 5 -119 65
-254 134 l-246 126 -36 -92z"/>
<path d="M9998 4173 c-217 -312 -336 -624 -379 -993 -15 -133 -6 -485 16 -630
27 -176 87 -406 140 -539 12 -31 25 -64 29 -74 5 -17 35 -4 254 108 136 70
251 130 255 135 5 4 -5 30 -22 58 -98 159 -194 410 -235 614 -43 212 -51 321
-51 678 0 352 9 458 56 659 11 46 18 86 16 88 -2 2 -38 -45 -79 -104z"/>
<path d="M5449 2898 c-136 -134 -187 -213 -174 -267 9 -35 90 -112 148 -140
56 -27 174 -38 234 -22 61 17 109 66 118 121 4 25 22 75 40 111 19 36 36 81
40 100 6 35 5 37 -82 107 -88 72 -125 95 -174 107 -23 6 -40 -7 -150 -117z"/>
</g>
</svg>
