<?xml version="1.0" standalone="no"?>
<!DOCTYPE svg PUBLIC "-//W3C//DTD SVG 20010904//EN"
 "http://www.w3.org/TR/2001/REC-SVG-20010904/DTD/svg10.dtd">
<svg version="1.0" xmlns="http://www.w3.org/2000/svg"
 width="1280.000000pt" height="1280.000000pt" viewBox="0 0 1280.000000 1280.000000"
 preserveAspectRatio="xMidYMid meet">

<g transform="translate(0.000000,1280.000000) scale(0.100000,-0.100000)"
fill="#000000" stroke="none">
<path d="M1941 12765 c-11 -31 -16 -35 -47 -35 -24 0 -34 -5 -34 -15 0 -8 -7
-15 -15 -15 -8 0 -15 7 -15 15 0 8 5 15 10 15 6 0 10 11 10 25 0 14 -4 25 -10
25 -5 0 -10 -4 -10 -10 0 -15 -48 -12 -53 3 -3 8 -11 5 -24 -10 -28 -31 -83
-29 -83 3 0 8 -4 14 -10 14 -5 0 -10 -4 -10 -10 0 -5 -7 -10 -15 -10 -8 0 -23
-9 -32 -20 -18 -20 -73 -28 -73 -10 0 16 -33 11 -60 -10 -20 -15 -24 -27 -24
-59 1 -29 -3 -41 -12 -41 -8 0 -14 5 -14 11 0 15 -26 39 -44 39 -9 0 -20 -16
-27 -40 -11 -34 -16 -40 -41 -40 -18 0 -28 5 -28 15 0 8 -4 15 -10 15 -5 0
-10 -8 -10 -18 0 -28 -34 -62 -62 -62 -26 0 -48 -17 -48 -37 0 -9 15 -13 46
-13 55 0 94 -30 94 -72 0 -23 -4 -28 -25 -28 -13 0 -28 8 -34 18 -8 14 -12 15
-22 5 -7 -7 -30 -13 -51 -13 -38 0 -38 0 -38 -40 0 -34 -4 -42 -26 -50 -14 -6
-36 -10 -50 -10 -15 0 -24 -6 -24 -15 0 -10 -14 -17 -40 -21 -22 -4 -40 -10
-40 -15 0 -16 -32 -10 -46 9 -22 28 -17 32 41 32 42 0 55 3 55 15 0 8 9 15 20
15 13 0 20 7 20 20 0 12 10 25 25 32 24 11 35 38 15 38 -5 0 -10 14 -10 30 0
24 -4 30 -21 30 -18 0 -20 -4 -15 -26 8 -31 -20 -64 -54 -64 -13 0 -20 -7 -20
-20 0 -18 -7 -20 -75 -20 l-75 0 0 -40 c0 -28 -4 -40 -14 -40 -8 0 -18 5 -21
10 -10 17 -36 11 -67 -15 -16 -14 -38 -25 -49 -25 -15 0 -19 -7 -19 -34 0 -29
-4 -36 -31 -45 -47 -16 -99 -14 -99 4 0 18 -12 19 -27 4 -6 -6 -9 -26 -6 -45
4 -27 2 -34 -11 -34 -10 0 -16 -9 -16 -25 0 -23 -3 -25 -50 -25 -45 0 -50 -2
-56 -25 -3 -14 -16 -32 -27 -40 -29 -20 -17 -27 47 -29 37 -1 56 -5 56 -13 0
-8 -14 -13 -35 -13 -19 0 -35 -4 -35 -10 0 -5 14 -10 30 -10 17 0 30 -4 30
-10 0 -5 -6 -10 -14 -10 -7 0 -16 -13 -20 -30 -5 -25 -10 -30 -36 -30 -21 0
-34 -8 -46 -25 -18 -28 -64 -35 -64 -10 0 8 -4 15 -10 15 -5 0 -10 -4 -10 -10
0 -5 -7 -10 -15 -10 -11 0 -15 -12 -15 -50 0 -44 -3 -50 -21 -50 -11 0 -27 -6
-35 -14 -7 -8 -32 -17 -54 -21 -40 -7 -40 -7 -40 -51 0 -24 -4 -44 -10 -44 -7
0 -10 -1930 -10 -5770 l0 -5770 6400 0 6400 0 0 5825 0 5825 -23 0 c-12 0 -28
9 -35 20 -10 16 -23 20 -66 20 -35 0 -58 5 -66 15 -8 9 -22 12 -41 8 -24 -4
-29 -2 -29 14 0 10 -5 24 -11 30 -19 19 -2 43 31 43 31 0 35 6 24 34 -4 10
-18 16 -40 16 -41 0 -50 17 -60 117 -4 37 -12 72 -18 78 -18 17 -82 36 -100
29 -20 -8 -21 -20 -1 -28 9 -3 15 -18 15 -40 0 -34 1 -35 30 -29 28 5 30 4 30
-26 0 -24 -4 -31 -19 -31 -23 0 -51 25 -51 46 0 8 -10 14 -24 14 -57 0 -86 12
-86 35 0 15 -7 25 -21 28 -36 10 -20 42 24 45 29 3 37 7 37 23 0 10 5 19 10
19 6 0 10 6 10 14 0 8 7 16 15 20 22 8 18 23 -7 29 -24 7 -58 -17 -58 -40 0
-16 -21 -17 -56 -1 -22 10 -25 17 -21 43 l5 30 -61 0 c-60 0 -89 -17 -47 -28
15 -4 20 -13 20 -36 0 -29 3 -31 35 -31 24 0 35 -5 35 -15 0 -8 -7 -15 -15
-15 -8 0 -15 -9 -15 -20 0 -24 -18 -25 -67 -5 -19 8 -53 15 -75 15 l-39 0 3
53 3 52 38 3 c36 3 54 22 21 22 -14 0 -16 8 -10 50 l7 50 -33 2 c-18 0 -51 2
-73 2 -38 1 -40 3 -43 34 -4 37 -22 44 -22 8 0 -36 -29 -42 -56 -11 -32 38
-44 32 -44 -25 0 -38 4 -50 15 -50 8 0 15 -7 15 -15 0 -8 -9 -15 -20 -15 -11
0 -20 3 -20 8 0 4 -10 12 -22 17 -21 9 -23 17 -22 73 1 51 -2 62 -13 57 -8 -3
-21 -5 -29 -5 -9 0 -14 -11 -14 -30 0 -26 -3 -30 -29 -30 -23 0 -32 7 -43 30
-7 17 -19 30 -25 30 -7 0 -13 7 -13 15 0 8 7 15 15 15 8 0 15 -4 15 -8 0 -4
16 -8 35 -8 34 0 45 9 25 21 -5 3 -10 24 -10 46 0 33 3 39 20 39 11 0 23 -7
26 -15 4 -8 12 -15 19 -15 7 0 15 7 19 15 6 17 46 21 46 5 0 -5 9 -10 20 -10
14 0 22 11 29 38 13 45 13 52 2 52 -5 0 -11 -8 -13 -18 -4 -13 -18 -21 -42
-25 -48 -8 -86 7 -86 33 0 11 -4 20 -10 20 -5 0 -10 -7 -10 -15 0 -11 -12 -15
-44 -15 -27 0 -51 -6 -60 -16 -22 -21 -20 -34 4 -34 16 0 20 -7 20 -30 0 -16
-5 -30 -11 -30 -14 0 -39 -25 -39 -39 0 -6 -9 -11 -20 -11 -11 0 -20 7 -20 15
0 8 5 15 10 15 15 0 12 47 -5 64 -8 8 -15 28 -15 45 0 26 -4 31 -25 31 -23 0
-25 4 -25 45 0 25 -4 45 -10 45 -5 0 -10 -7 -10 -15 0 -10 -10 -15 -30 -15
-19 0 -30 5 -30 14 0 9 -17 16 -45 20 -36 6 -45 11 -45 27 0 13 -7 19 -24 19
-18 0 -25 7 -29 30 -6 27 -37 44 -37 20 0 -5 -11 -10 -25 -10 -18 0 -25 5 -25
20 0 16 -7 20 -35 20 -31 0 -35 -3 -35 -25 0 -14 5 -25 10 -25 6 0 10 -13 10
-30 0 -25 4 -30 25 -30 26 0 29 -9 19 -47 -9 -32 -40 -29 -71 7 -18 22 -33 30
-58 30 -51 0 -65 9 -65 41 0 16 -4 29 -10 29 -5 0 -10 11 -10 25 0 25 -1 25
-80 25 -64 0 -80 -3 -80 -15 0 -8 -7 -15 -15 -15 -8 0 -15 7 -15 15 0 13 -492
15 -4368 15 l-4368 0 -13 -35z m-261 -45 c0 -5 18 -10 40 -10 l40 0 0 -40 c0
-35 -3 -40 -23 -40 -12 0 -28 9 -35 20 -21 34 -32 23 -25 -25 l6 -45 -32 0
-32 0 6 58 c4 31 9 65 11 75 6 18 44 24 44 7z m390 -5 c0 -8 -4 -15 -10 -15
-5 0 -10 7 -10 15 0 8 5 15 10 15 6 0 10 -7 10 -15z m8700 -25 c0 -11 -7 -20
-15 -20 -8 0 -15 9 -15 20 0 11 7 20 15 20 8 0 15 -9 15 -20z m-50 -14 c0 -14
-36 -46 -52 -46 -14 0 -9 19 10 39 21 23 42 26 42 7z m110 -22 c0 -9 -5 -14
-12 -12 -18 6 -21 28 -4 28 9 0 16 -7 16 -16z m-9271 -18 c15 -18 4 -65 -20
-89 -11 -10 -19 -24 -19 -32 0 -16 -9 -18 -34 -9 -10 4 -16 18 -16 35 0 16 -4
29 -10 29 -20 0 -9 29 13 32 14 2 23 11 25 26 4 26 42 31 61 8z m9251 -31 c0
-16 -6 -25 -15 -25 -9 0 -15 9 -15 25 0 16 6 25 15 25 9 0 15 -9 15 -25z m475
-5 c3 -5 17 -10 31 -10 15 0 24 -6 24 -15 0 -8 -4 -15 -10 -15 -5 0 -10 -4
-10 -10 0 -5 7 -10 15 -10 8 0 15 -7 15 -15 0 -11 -11 -15 -35 -15 -22 0 -38
6 -41 15 -4 8 -12 15 -20 15 -9 0 -14 12 -14 35 0 28 4 35 19 35 11 0 23 -4
26 -10z m-125 -15 c0 -8 -7 -15 -15 -15 -8 0 -15 7 -15 15 0 8 7 15 15 15 8 0
15 -7 15 -15z m-212 -32 c3 -30 1 -33 -22 -33 -23 0 -26 4 -26 36 0 31 3 35
23 32 17 -2 23 -11 25 -35z m82 22 c0 -8 -4 -15 -10 -15 -5 0 -10 7 -10 15 0
8 5 15 10 15 6 0 10 -7 10 -15z m58 -87 c17 -17 15 -58 -3 -58 -8 0 -15 6 -15
13 0 6 -3 22 -6 35 -7 24 5 29 24 10z m140 -36 c2 -15 -2 -22 -12 -22 -9 0
-16 -4 -16 -9 0 -11 -50 -44 -57 -37 -10 9 19 76 33 76 8 0 14 5 14 11 0 20
35 4 38 -19z m52 18 c0 -5 -7 -10 -15 -10 -8 0 -15 5 -15 10 0 6 7 10 15 10 8
0 15 -4 15 -10z m550 -205 c0 -8 -4 -15 -10 -15 -5 0 -10 7 -10 15 0 8 5 15
10 15 6 0 10 -7 10 -15z m74 9 c11 -4 16 -19 16 -50 0 -44 0 -44 -35 -44 l-35
0 0 50 c0 52 11 61 54 44z m-11066 -106 c-3 -42 -4 -43 -40 -46 -37 -3 -38 -3
-38 32 0 38 18 55 58 56 21 0 23 -4 20 -42z m352 8 c0 -8 3 -21 6 -30 4 -11 1
-16 -10 -16 -9 0 -16 5 -16 10 0 6 -7 10 -15 10 -18 0 -20 26 -2 33 23 10 37
7 37 -7z m-280 -12 c0 -9 -7 -14 -17 -12 -25 5 -28 28 -4 28 12 0 21 -6 21
-16z m-170 -24 c0 -11 -7 -20 -15 -20 -8 0 -15 9 -15 20 0 11 7 20 15 20 8 0
15 -9 15 -20z m290 -65 c0 -8 -7 -15 -15 -15 -8 0 -15 7 -15 15 0 8 7 15 15
15 8 0 15 -7 15 -15z m-410 -10 c21 -25 8 -50 -28 -53 -17 -2 -32 -7 -32 -13
0 -5 -13 -9 -30 -9 -29 0 -30 2 -30 45 l0 45 54 0 c35 0 58 -5 66 -15z m11398
-22 c-2 -13 -13 -18 -37 -18 -39 0 -54 21 -19 28 49 9 60 7 56 -10z m30 -100
c-2 -22 -9 -29 -30 -31 -24 -3 -28 0 -28 21 0 13 3 27 7 30 3 4 17 7 30 7 21
0 24 -4 21 -27z m310 -75 c-6 -18 -28 -21 -28 -4 0 9 7 16 16 16 9 0 14 -5 12
-12z m92 -23 c0 -8 -7 -15 -15 -15 -8 0 -15 7 -15 15 0 8 7 15 15 15 8 0 15
-7 15 -15z m10 -160 c19 -23 -3 -43 -24 -22 -9 9 -16 20 -16 26 0 16 26 13 40
-4z m120 -40 c0 -8 -4 -15 -10 -15 -5 0 -10 7 -10 15 0 8 5 15 10 15 6 0 10
-7 10 -15z m100 -10 c0 -8 -7 -15 -15 -15 -8 0 -15 7 -15 15 0 8 7 15 15 15 8
0 15 -7 15 -15z m94 -181 c25 -9 19 -24 -9 -24 -24 0 -32 10 -18 23 8 8 8 8
27 1z m-9412 -2346 c52 -83 88 -213 88 -321 0 -242 -131 -389 -604 -682 -232
-143 -342 -229 -517 -404 -384 -385 -595 -782 -696 -1306 -13 -68 -17 -141
-16 -305 0 -234 14 -336 69 -510 14 -47 28 -95 31 -108 10 -41 21 -33 62 42
69 126 196 263 421 455 68 58 139 120 158 136 l33 30 -21 50 c-55 128 -80 231
-87 368 -11 217 35 386 156 572 92 140 198 225 505 399 353 202 439 284 511
488 16 45 42 67 65 53 14 -9 30 -74 30 -125 0 -90 -36 -186 -105 -279 -63 -86
-107 -127 -340 -321 -214 -178 -328 -290 -392 -386 -112 -167 -139 -322 -87
-493 37 -125 37 -124 136 -58 156 104 227 189 273 328 19 56 32 80 47 85 41
13 58 -45 58 -193 0 -97 -3 -122 -25 -174 -32 -80 -92 -162 -209 -286 -71 -76
-94 -107 -89 -120 10 -28 139 -230 194 -305 65 -87 122 -138 155 -138 42 0
165 64 213 112 24 24 58 66 75 93 73 116 80 147 81 375 2 217 8 250 65 345 27
45 42 61 61 63 l26 3 6 -128 c3 -70 12 -157 21 -193 55 -243 57 -257 58 -385
1 -223 -60 -356 -248 -540 -50 -49 -94 -100 -97 -113 -9 -38 11 -88 73 -180
119 -178 249 -262 407 -262 105 0 213 52 248 121 28 53 21 100 -50 329 -14 47
-29 121 -32 166 -7 101 8 156 89 324 73 151 74 155 87 205 17 62 13 108 -14
192 -14 42 -23 83 -21 90 19 48 145 -47 191 -142 36 -76 35 -212 -1 -385 -31
-142 -37 -308 -15 -375 43 -132 129 -247 245 -330 117 -83 230 -127 436 -170
519 -109 737 -198 910 -375 103 -104 180 -255 215 -421 18 -87 30 -309 18
-327 -5 -7 -36 -22 -69 -34 -47 -17 -87 -23 -195 -26 -209 -6 -239 8 -239 114
0 53 -40 180 -77 244 -93 159 -299 291 -547 350 -346 81 -902 80 -1511 -5 -60
-8 -141 -19 -180 -25 -38 -5 -115 -16 -170 -25 -55 -8 -129 -20 -165 -25 -374
-58 -642 -58 -829 1 -230 72 -379 215 -553 529 -43 77 -248 487 -248 495 0 3
-9 24 -20 48 -49 107 -111 291 -150 442 -19 77 -40 221 -50 350 -14 187 -40
282 -161 578 -130 318 -152 405 -152 612 0 179 11 219 121 441 162 328 195
445 190 669 l-3 120 26 3 c31 4 56 -26 93 -110 38 -87 56 -189 56 -317 0 -124
-16 -223 -74 -481 -9 -36 -23 -117 -32 -180 -19 -132 -10 -214 32 -309 42 -93
123 -179 156 -166 9 4 43 59 78 123 101 190 204 340 395 577 134 166 134 166
88 276 -23 56 -26 78 -27 179 -1 163 18 210 174 430 97 136 97 136 129 224 15
38 31 71 36 73 27 8 40 -18 43 -89 4 -78 -1 -96 -82 -288 -30 -71 -36 -97 -36
-158 0 -88 27 -155 73 -179 42 -21 80 -8 220 77 63 38 190 110 281 159 275
149 372 227 429 345 39 82 50 142 48 274 -1 113 0 122 18 122 10 0 25 -10 33
-22z m6105 -70 c-6 -115 12 -226 50 -305 33 -69 124 -164 208 -218 53 -33 323
-185 331 -185 4 0 145 -84 208 -124 32 -21 78 -45 103 -53 55 -19 79 -10 119
43 25 32 29 48 33 116 3 85 -5 117 -61 238 -43 92 -58 147 -58 212 0 127 39
143 80 33 29 -78 52 -116 152 -256 85 -120 135 -219 149 -295 16 -83 6 -196
-25 -280 -41 -113 -40 -120 67 -253 222 -276 319 -418 419 -608 32 -61 64
-113 71 -116 22 -8 53 10 89 52 53 63 86 134 105 227 15 77 15 91 -1 196 -10
62 -28 158 -41 213 -12 55 -28 132 -35 170 -7 39 -16 92 -21 118 -5 26 -9 97
-9 157 0 149 20 246 71 351 32 65 50 82 81 77 23 -3 23 -4 23 -163 1 -153 11
-227 45 -310 4 -11 14 -36 20 -55 7 -19 53 -118 102 -220 133 -275 142 -304
142 -480 1 -106 -4 -167 -17 -225 -17 -74 -56 -203 -76 -250 -5 -11 -19 -45
-31 -75 -12 -30 -28 -68 -36 -85 -94 -211 -139 -375 -154 -560 -18 -223 -44
-356 -109 -550 -43 -127 -56 -164 -64 -171 -4 -4 -7 -13 -7 -20 0 -28 -198
-433 -306 -625 -189 -338 -369 -480 -674 -530 -144 -24 -416 -12 -685 30 -33
5 -107 17 -165 26 -58 9 -134 21 -170 25 -36 5 -119 16 -185 25 -636 86 -1194
86 -1524 0 -213 -55 -348 -129 -460 -251 -89 -98 -151 -239 -151 -347 0 -75
-7 -85 -64 -98 -83 -18 -298 -7 -370 19 -33 12 -63 27 -68 34 -21 35 -2 266
33 393 65 233 203 405 416 517 156 83 341 140 693 213 69 15 150 35 181 45
198 64 356 181 440 325 72 124 92 242 65 390 -47 255 -57 333 -52 381 12 107
56 189 131 243 47 34 82 40 91 16 4 -8 -4 -41 -17 -73 -18 -42 -24 -76 -23
-132 0 -85 11 -120 91 -282 76 -154 86 -189 87 -293 1 -88 -7 -130 -47 -250
-48 -146 -57 -226 -32 -274 35 -69 142 -121 249 -121 154 0 298 95 415 274 92
141 89 171 -23 270 -183 160 -277 371 -263 591 3 49 10 110 15 135 6 25 16 72
23 105 6 33 18 84 26 113 8 29 18 110 21 180 7 121 8 127 29 130 25 4 62 -47
100 -138 21 -50 23 -71 23 -237 0 -215 13 -288 70 -383 64 -108 145 -179 250
-217 54 -19 76 -16 115 19 60 52 189 234 265 372 l32 57 -96 99 c-112 117
-187 220 -217 299 -18 46 -22 76 -21 166 1 133 17 190 53 190 21 0 27 -10 50
-75 50 -147 120 -234 272 -334 103 -69 102 -69 138 44 27 89 32 226 10 305
-51 182 -161 314 -486 585 -361 302 -438 406 -439 600 0 87 12 130 39 130 24
0 42 -27 64 -96 28 -85 54 -125 132 -202 79 -78 142 -120 388 -262 107 -61
226 -135 265 -164 137 -102 224 -212 300 -378 57 -123 70 -194 71 -363 0 -167
-12 -234 -71 -384 -18 -46 -31 -88 -28 -93 3 -5 57 -52 121 -105 270 -225 435
-402 499 -536 10 -20 21 -37 24 -37 10 0 36 65 59 145 32 110 40 152 56 275
67 518 -102 1079 -474 1575 -98 130 -359 391 -486 486 -55 41 -179 123 -275
183 -238 149 -331 216 -425 311 -121 121 -165 218 -165 365 1 85 11 140 42
220 32 83 57 120 80 120 20 0 21 -4 15 -92z"/>
<path d="M2394 5668 c-223 -228 -312 -354 -349 -494 -40 -154 -4 -289 117
-442 40 -50 63 -69 121 -96 40 -19 107 -41 151 -50 151 -31 390 -17 586 35
101 26 124 36 151 65 32 34 30 108 -6 193 -32 77 -153 280 -244 410 -36 52
-129 193 -206 314 -77 121 -145 222 -151 224 -6 2 -82 -70 -170 -159z"/>
<path d="M10177 5778 c-130 -205 -271 -422 -346 -533 -109 -160 -189 -298
-224 -388 -63 -158 -23 -201 248 -259 136 -30 426 -32 525 -5 95 26 160 59
204 103 47 47 116 153 140 214 24 60 31 173 17 240 -16 77 -79 201 -147 290
-55 73 -361 390 -377 390 -4 0 -22 -24 -40 -52z"/>
<path d="M10905 12793 c11 -3 24 -11 28 -19 9 -16 17 -17 37 -4 13 9 13 11 0
20 -8 5 -31 9 -50 9 -21 -1 -27 -3 -15 -6z"/>
<path d="M1330 12760 c0 -11 5 -20 10 -20 6 0 10 9 10 20 0 11 -4 20 -10 20
-5 0 -10 -9 -10 -20z"/>
<path d="M11530 12770 c0 -5 -9 -10 -20 -10 -11 0 -20 -7 -20 -15 0 -10 10
-15 34 -15 38 0 49 10 40 34 -7 17 -34 22 -34 6z"/>
<path d="M1207 12753 c-15 -15 -7 -43 13 -43 11 0 20 4 20 9 0 5 3 16 6 25 4
11 0 16 -13 16 -11 0 -23 -3 -26 -7z"/>
<path d="M1340 12720 c0 -5 5 -10 10 -10 6 0 10 5 10 10 0 6 -4 10 -10 10 -5
0 -10 -4 -10 -10z"/>
<path d="M1160 12640 c0 -5 5 -10 10 -10 6 0 10 5 10 10 0 6 -4 10 -10 10 -5
0 -10 -4 -10 -10z"/>
<path d="M840 12540 c0 -5 5 -10 10 -10 6 0 10 5 10 10 0 6 -4 10 -10 10 -5 0
-10 -4 -10 -10z"/>
<path d="M12060 12465 c0 -37 22 -49 34 -19 12 32 6 54 -14 54 -16 0 -20 -7
-20 -35z"/>
<path d="M820 12444 c0 -9 5 -14 12 -12 18 6 21 28 4 28 -9 0 -16 -7 -16 -16z"/>
<path d="M11720 12410 c0 -5 7 -10 15 -10 8 0 15 5 15 10 0 6 -7 10 -15 10 -8
0 -15 -4 -15 -10z"/>
<path d="M12200 12330 c0 -20 5 -30 15 -30 17 0 18 4 9 38 -9 32 -24 27 -24
-8z"/>
<path d="M530 12330 c0 -5 5 -10 10 -10 6 0 10 5 10 10 0 6 -4 10 -10 10 -5 0
-10 -4 -10 -10z"/>
<path d="M560 12290 c0 -5 5 -10 10 -10 6 0 10 5 10 10 0 6 -4 10 -10 10 -5 0
-10 -4 -10 -10z"/>
<path d="M12270 12290 c0 -5 5 -10 10 -10 6 0 10 5 10 10 0 6 -4 10 -10 10 -5
0 -10 -4 -10 -10z"/>
<path d="M480 12220 c0 -5 5 -10 10 -10 6 0 10 5 10 10 0 6 -4 10 -10 10 -5 0
-10 -4 -10 -10z"/>
<path d="M340 12135 c0 -14 5 -25 10 -25 6 0 10 11 10 25 0 14 -4 25 -10 25
-5 0 -10 -11 -10 -25z"/>
<path d="M220 12125 c0 -8 5 -15 10 -15 6 0 10 7 10 15 0 8 -4 15 -10 15 -5 0
-10 -7 -10 -15z"/>
<path d="M140 12070 c0 -5 5 -10 10 -10 6 0 10 5 10 10 0 6 -4 10 -10 10 -5 0
-10 -4 -10 -10z"/>
<path d="M12710 12016 c0 -9 7 -16 16 -16 17 0 14 22 -4 28 -7 2 -12 -3 -12
-12z"/>
<path d="M12630 11985 c0 -14 5 -25 10 -25 6 0 10 11 10 25 0 14 -4 25 -10 25
-5 0 -10 -11 -10 -25z"/>
<path d="M226 11904 c-34 -30 -30 -37 18 -29 29 6 36 12 36 31 0 31 -17 30
-54 -2z"/>
<path d="M12770 11902 c0 -5 7 -17 15 -28 14 -18 14 -18 15 9 0 17 -5 27 -15
27 -8 0 -15 -4 -15 -8z"/>
<path d="M80 11858 c0 -40 -6 -48 -45 -68 -20 -11 -31 -24 -33 -43 -3 -26 -2
-27 23 -15 19 9 28 9 37 0 19 -19 48 -14 48 8 0 13 7 20 20 20 11 0 20 5 20
10 0 6 -5 10 -11 10 -7 0 -9 11 -6 29 4 19 1 33 -8 41 -8 7 -15 19 -15 26 0 8
-7 14 -15 14 -10 0 -15 -10 -15 -32z"/>
<path d="M12710 11851 c0 -5 -18 -11 -40 -15 -26 -4 -40 -11 -40 -21 0 -8 -7
-15 -15 -15 -8 0 -15 -8 -15 -17 0 -15 9 -18 50 -18 45 0 50 2 50 23 0 13 6
22 15 22 9 0 15 9 15 25 0 14 -4 25 -10 25 -5 0 -10 -4 -10 -9z"/>
<path d="M12780 11750 c0 -11 5 -20 10 -20 6 0 10 9 10 20 0 11 -4 20 -10 20
-5 0 -10 -9 -10 -20z"/>
</g>
</svg>
