<?xml version="1.0" standalone="no"?>
<!DOCTYPE svg PUBLIC "-//W3C//DTD SVG 20010904//EN"
 "http://www.w3.org/TR/2001/REC-SVG-20010904/DTD/svg10.dtd">
<svg version="1.0" xmlns="http://www.w3.org/2000/svg"
 width="1280.000000pt" height="720.000000pt" viewBox="0 0 1280.000000 720.000000"
 preserveAspectRatio="xMidYMid meet">
<metadata>
Xml created by Rakesh@rsultimate+  http://www.rsultimate.000webhostapp.com
</metadata>
<g transform="translate(0.000000,720.000000) scale(0.100000,-0.100000)"
fill="#000000" stroke="none">
<path d="M0 3600 l0 -3600 6400 0 6400 0 0 3600 0 3600 -6400 0 -6400 0 0
-3600z m1214 3008 c45 -135 26 -440 -40 -653 -38 -120 -78 -208 -199 -435 -81
-152 -157 -311 -201 -420 -35 -88 -38 -102 -39 -200 0 -93 3 -111 25 -154 64
-126 174 -188 478 -271 474 -129 584 -181 648 -307 24 -48 64 -82 64 -55 0 7
-4 17 -8 23 -5 5 -18 38 -30 74 -78 241 -87 436 -30 625 23 75 71 135 109 135
18 0 19 -9 19 -169 0 -189 12 -254 62 -356 63 -125 109 -179 288 -333 551
-478 688 -623 861 -907 103 -170 167 -309 229 -495 58 -174 70 -223 70 -278 0
-43 -5 -56 -36 -93 -20 -24 -32 -45 -26 -47 5 -1 62 25 126 59 65 33 120 59
122 56 11 -10 -68 -148 -124 -218 -63 -78 -349 -366 -355 -359 -2 3 -9 23 -14
45 -57 223 -108 407 -137 491 -219 640 -640 1123 -1221 1399 -265 126 -526
187 -880 205 -178 9 -265 24 -377 66 -126 47 -194 136 -238 310 -39 152 -18
428 37 503 46 61 64 16 81 -206 15 -195 55 -290 155 -366 90 -68 238 -88 354
-47 60 21 99 48 53 36 -60 -15 -198 -18 -251 -6 -105 25 -195 109 -233 218
-18 51 -33 160 -45 333 -12 157 -23 182 -140 304 -102 107 -143 180 -166 293
-15 71 -15 95 -5 167 12 82 44 166 66 172 12 4 40 -82 49 -152 8 -66 33 -135
59 -163 45 -50 118 -69 193 -51 151 37 418 460 518 819 31 114 63 269 71 355
11 117 31 135 58 53z m3134 -10 c6 -29 15 -91 22 -138 50 -361 254 -798 465
-999 87 -82 131 -100 208 -82 26 6 59 18 74 28 31 21 69 101 78 169 4 27 11
63 16 79 4 17 11 47 14 69 l6 38 24 -22 c46 -43 76 -219 55 -329 -19 -103 -63
-180 -166 -291 -51 -54 -99 -111 -107 -127 -21 -40 -35 -122 -42 -248 -3 -60
-11 -139 -16 -175 -20 -132 -99 -249 -198 -293 -55 -24 -170 -33 -256 -19 -33
6 -62 8 -64 6 -2 -2 18 -14 45 -26 41 -18 67 -22 154 -23 96 0 110 3 163 28
66 33 104 65 140 122 44 67 58 123 72 290 21 229 33 259 81 188 61 -91 77
-347 31 -513 -34 -127 -48 -157 -97 -212 -93 -106 -218 -136 -699 -168 -177
-12 -236 -22 -416 -73 -177 -50 -415 -171 -627 -319 -53 -38 -99 -68 -103 -68
-3 0 -20 17 -38 37 -30 35 -188 212 -263 295 -19 20 -34 43 -33 50 0 12 74 76
262 227 172 139 250 225 305 336 54 108 66 172 66 357 1 91 4 169 7 172 11 12
56 -12 82 -44 56 -66 86 -265 67 -437 -10 -97 -45 -229 -80 -308 -26 -59 -30
-74 -21 -80 5 -2 16 7 25 21 36 54 176 185 218 203 91 38 333 117 589 190 197
56 290 115 348 221 32 58 36 74 39 155 4 83 1 100 -31 195 -43 128 -94 241
-176 385 -145 256 -219 425 -262 600 -20 78 -23 118 -23 305 -1 161 2 223 13
248 20 47 38 40 49 -20z m7956 -1536 c132 -50 234 -144 294 -270 l37 -77 3
-1405 c2 -1382 2 -1406 -18 -1471 -47 -157 -187 -292 -345 -333 -53 -14 -320
-16 -2430 -16 -2595 0 -2408 -4 -2527 56 -64 33 -156 121 -198 190 -73 121
-69 32 -69 1549 -1 1500 -5 1413 62 1539 66 125 212 233 347 255 31 5 1073 8
2420 7 l2365 -1 59 -23z m-6362 -1243 c104 -21 207 -81 365 -213 l150 -124 6
-62 c7 -84 57 -182 155 -307 184 -235 204 -308 132 -488 -17 -44 -60 -132 -95
-196 -36 -63 -76 -142 -90 -174 -15 -32 -43 -75 -64 -95 -21 -20 -83 -97 -138
-171 -91 -122 -101 -140 -111 -198 -13 -74 -16 -78 -58 -87 -26 -5 -36 -1 -58
22 -21 23 -29 27 -44 18 -34 -21 -61 -88 -76 -192 -16 -102 -32 -149 -67 -188
-14 -14 -21 -46 -28 -113 -10 -92 -34 -156 -60 -156 -6 0 -22 25 -35 55 -12
30 -61 130 -108 222 -47 92 -93 196 -103 232 -10 36 -21 66 -25 66 -3 0 -16
-19 -28 -42 -21 -43 -36 -98 -68 -238 -16 -74 -54 -162 -74 -175 -6 -4 -10
-53 -10 -118 0 -62 -3 -136 -7 -165 l-6 -53 -24 23 c-37 34 -70 106 -125 268
-40 117 -50 162 -54 231 -13 255 -155 496 -381 649 -51 34 -55 40 -179 290
-152 307 -184 396 -191 535 -5 81 -3 107 10 130 9 17 117 167 239 335 220 301
224 305 283 334 93 44 224 73 509 111 143 20 266 38 271 40 22 8 137 4 187 -6z
m-4159 -285 c264 -105 493 -254 679 -443 95 -97 211 -241 248 -309 8 -15 25
-43 36 -62 109 -177 207 -444 268 -725 29 -137 55 -374 71 -653 15 -271 15
-285 -2 -314 -27 -46 -61 -67 -149 -90 -184 -48 -435 -11 -496 72 -15 21 -21
56 -28 180 -5 85 -12 184 -15 220 -2 36 -9 135 -15 220 -31 458 -85 669 -221
865 -69 100 -196 219 -300 279 -146 86 -156 93 -178 138 -20 42 -21 59 -21
351 0 267 2 307 15 307 8 0 57 -16 108 -36z m2075 -272 l-3 -308 -34 -52 c-18
-29 -46 -61 -61 -72 -33 -23 -145 -80 -158 -80 -5 0 -28 42 -52 93 -24 50 -64
137 -91 192 -26 55 -66 140 -88 190 l-42 90 32 26 c74 60 428 226 487 229 11
0 13 -57 10 -308z m-1963 -896 c202 -93 341 -268 364 -458 4 -32 6 -58 4 -58
-14 0 -338 338 -370 385 -62 93 -96 165 -77 165 3 0 39 -15 79 -34z"/>
<path d="M10854 4324 c4 -10 27 -68 51 -129 24 -60 45 -116 47 -124 2 -8 -26
-25 -76 -47 -234 -99 -422 -220 -618 -398 -75 -68 -97 -96 -60 -81 177 76 487
142 757 160 l101 7 17 -88 c42 -225 51 -333 52 -629 0 -187 -5 -322 -13 -380
-28 -197 -92 -436 -162 -604 -16 -39 -25 -71 -19 -71 8 0 627 316 638 326 7 6
-29 362 -50 504 -46 305 -134 640 -224 851 -19 44 -35 82 -35 84 0 4 69 -4
175 -21 108 -18 266 -69 365 -119 40 -20 74 -35 75 -33 20 19 245 562 237 569
-4 4 -41 14 -82 23 -188 38 -407 52 -578 37 -104 -9 -167 -20 -383 -67 -23 -5
-33 5 -112 114 -86 119 -118 156 -103 116z"/>
<path d="M8000 4279 c-26 -48 -84 -224 -115 -349 -141 -567 -99 -1096 133
-1667 15 -37 18 -53 9 -53 -6 0 -70 9 -141 20 -71 11 -132 20 -135 20 -16 -1
147 -96 255 -150 92 -46 124 -66 133 -87 7 -16 46 -79 87 -140 72 -108 102
-139 91 -90 -17 69 -39 198 -35 202 2 2 46 -4 98 -15 222 -45 477 -48 744 -9
71 10 130 20 131 21 6 7 126 651 123 660 -2 5 -37 -19 -78 -53 -157 -131 -366
-246 -573 -314 -128 -41 -243 -63 -383 -72 l-101 -6 -12 79 c-60 428 -23 978
90 1317 40 119 131 319 184 404 l26 43 -243 122 c-302 152 -275 142 -288 117z"/>
<path d="M10047 4248 c-61 -75 -166 -243 -222 -355 -104 -208 -167 -410 -202
-643 -23 -155 -23 -478 1 -650 29 -216 98 -484 161 -627 l24 -53 256 127 c140
70 255 131 255 135 0 4 -25 51 -55 105 -197 352 -277 765 -262 1348 7 248 23
392 61 550 13 55 23 101 21 103 -1 2 -18 -16 -38 -40z"/>
<path d="M5472 2946 c-132 -116 -222 -239 -222 -303 0 -35 83 -118 148 -150
73 -36 218 -45 287 -19 56 22 105 76 105 116 0 17 18 70 40 119 22 49 40 99
39 112 0 18 -23 42 -89 94 -171 134 -189 136 -308 31z"/>
</g>
</svg>
