<?xml version="1.0" standalone="no"?>
<!DOCTYPE svg PUBLIC "-//W3C//DTD SVG 20010904//EN"
 "http://www.w3.org/TR/2001/REC-SVG-20010904/DTD/svg10.dtd">
<svg version="1.0" xmlns="http://www.w3.org/2000/svg"
 width="1280.000000pt" height="720.000000pt" viewBox="0 0 1280.000000 720.000000"
 preserveAspectRatio="xMidYMid meet">

<g transform="translate(0.000000,720.000000) scale(0.100000,-0.100000)"
fill="#000000" stroke="none">
<path d="M1177 6652 c-9 -10 -17 -31 -17 -45 0 -76 -55 -339 -102 -487 -80
-253 -296 -613 -421 -700 -23 -16 -48 -35 -55 -41 -7 -6 -20 -8 -28 -5 -7 3
-14 1 -14 -4 0 -13 -37 -13 -45 0 -3 5 -13 6 -21 3 -9 -3 -19 -2 -23 3 -3 5
-19 16 -36 26 -45 24 -74 86 -100 212 -12 63 -26 119 -29 125 -15 23 -34 9
-55 -40 -63 -145 -47 -335 39 -469 16 -25 59 -75 96 -111 120 -117 131 -145
149 -384 8 -99 21 -205 30 -235 31 -103 103 -189 188 -225 76 -31 208 -36 312
-10 17 4 17 4 -2 -6 -13 -7 -23 -16 -23 -21 0 -5 -4 -6 -10 -3 -5 3 -10 2 -10
-4 0 -6 -7 -8 -15 -5 -8 4 -15 1 -15 -6 0 -7 -8 -9 -20 -5 -11 4 -20 2 -20 -4
0 -14 -146 -15 -155 -1 -3 5 -12 7 -20 3 -8 -3 -15 0 -15 7 0 7 -7 10 -15 6
-8 -3 -15 -1 -15 5 0 6 -4 7 -10 4 -5 -3 -10 -1 -10 5 0 6 -4 8 -10 5 -6 -3
-10 -1 -10 6 0 7 -3 10 -6 7 -12 -12 -106 99 -134 157 -32 69 -37 95 -50 265
-11 151 -22 195 -49 197 -44 3 -101 -190 -101 -337 0 -76 25 -207 55 -287 49
-129 115 -190 257 -234 102 -32 180 -43 428 -59 333 -23 587 -94 879 -246 305
-159 586 -403 787 -684 202 -282 332 -580 439 -1005 26 -104 51 -194 55 -198
11 -12 339 319 395 397 48 68 101 173 91 183 -3 4 -56 -20 -117 -51 -61 -31
-115 -56 -121 -54 -6 2 3 19 20 38 41 44 46 74 27 156 -41 177 -105 353 -196
535 -175 353 -349 553 -889 1020 -222 192 -238 208 -294 287 -99 139 -126 239
-126 468 0 161 0 164 -22 164 -38 0 -85 -46 -107 -104 -25 -66 -51 -212 -51
-284 0 -84 27 -230 65 -348 19 -60 35 -113 35 -117 0 -19 -22 8 -44 52 -14 26
-43 64 -65 84 -44 40 -157 101 -171 92 -4 -3 -10 -1 -12 5 -1 5 -14 11 -28 14
-14 2 -27 5 -30 6 -3 2 -8 2 -12 1 -5 0 -8 4 -8 10 0 6 -7 9 -15 5 -8 -3 -15
0 -15 5 0 6 -9 9 -20 6 -11 -3 -20 -1 -20 4 0 4 -6 6 -14 3 -8 -3 -17 -1 -20
5 -4 6 -13 8 -21 4 -8 -3 -15 0 -15 6 0 6 -7 8 -15 5 -8 -4 -15 -2 -15 4 0 6
-9 8 -20 5 -12 -3 -20 0 -20 7 0 7 -7 10 -15 6 -8 -3 -15 0 -15 5 0 6 -9 9
-20 6 -11 -3 -20 -1 -20 5 0 5 -9 7 -19 3 -11 -3 -22 -1 -25 4 -4 6 -13 8 -21
4 -8 -3 -15 0 -15 7 0 7 -7 10 -15 7 -8 -4 -17 -2 -20 2 -3 5 -14 7 -25 4 -11
-3 -20 0 -20 6 0 5 -7 8 -15 5 -8 -4 -15 -1 -15 5 0 6 -7 8 -15 5 -8 -4 -15
-1 -15 6 0 7 -7 10 -15 6 -8 -3 -15 -1 -15 4 0 5 -7 7 -15 4 -8 -4 -15 -1 -15
6 0 6 -4 9 -9 6 -5 -4 -11 -2 -13 3 -1 5 -10 11 -18 13 -33 7 -137 88 -172
133 -46 60 -63 120 -61 210 2 121 55 252 258 640 157 300 206 433 234 639 16
115 14 331 -4 400 -22 83 -27 91 -48 68z"/>
<path d="M4303 6618 c-26 -48 -31 -328 -8 -465 34 -207 87 -340 253 -640 114
-206 188 -364 216 -463 64 -230 -5 -388 -211 -485 -40 -19 -77 -35 -82 -35 -5
0 -22 -5 -38 -12 -15 -6 -34 -10 -40 -9 -7 1 -13 -3 -13 -9 0 -6 -4 -8 -10 -5
-11 7 -90 -15 -90 -25 0 -4 -12 -7 -27 -7 -16 0 -41 -6 -58 -13 -16 -7 -33
-13 -37 -12 -8 2 -292 -92 -344 -114 -22 -9 -82 -59 -141 -117 -57 -55 -103
-98 -103 -95 0 4 14 41 31 83 52 130 71 219 76 360 4 107 1 146 -16 223 -24
109 -47 151 -96 177 -56 31 -60 20 -61 -178 0 -159 -2 -178 -27 -253 -35 -105
-105 -211 -198 -299 -63 -59 -370 -317 -401 -336 -20 -12 -1 -39 118 -171 67
-73 139 -154 160 -180 22 -26 47 -47 56 -47 9 -1 59 29 110 65 178 126 364
226 548 292 176 64 308 89 525 102 229 13 458 44 526 69 72 27 131 70 169 123
39 54 85 200 99 315 21 174 -33 412 -96 421 -17 2 -24 -3 -27 -20 -3 -13 -7
-35 -11 -51 -3 -15 -10 -87 -16 -160 -14 -188 -43 -270 -121 -343 -35 -34
-104 -74 -126 -74 -7 0 -10 -5 -6 -11 4 -8 0 -9 -15 -4 -12 4 -21 2 -21 -4 0
-7 -29 -11 -75 -11 -48 0 -75 4 -75 11 0 6 -6 9 -12 7 -7 -2 -33 6 -58 19
l-45 23 65 -8 c174 -19 286 18 369 122 62 77 78 149 99 432 12 156 27 189 142
312 170 181 211 330 150 543 -20 66 -53 111 -69 93 -5 -5 -18 -59 -29 -120
-26 -138 -45 -187 -86 -219 -17 -14 -37 -30 -44 -36 -7 -6 -20 -8 -29 -5 -9 4
-20 1 -24 -6 -7 -11 -12 -11 -30 0 -11 7 -23 11 -26 8 -10 -9 -122 75 -164
123 -54 62 -159 219 -207 312 -126 240 -203 488 -239 769 -10 77 -31 91 -60
38z"/>
<path d="M7510 5076 c0 -4 -11 -5 -25 -2 -30 8 -131 -25 -186 -60 -103 -65
-184 -169 -219 -282 -20 -63 -20 -96 -20 -1441 0 -1493 -2 -1422 55 -1535 57
-114 170 -208 292 -246 64 -20 90 -20 2457 -20 2154 0 2398 2 2447 16 155 45
280 166 335 323 l24 66 0 1386 c0 1356 0 1388 -20 1451 -34 112 -116 217 -217
281 -55 34 -153 69 -178 63 -12 -3 -24 -3 -27 -1 -9 9 -4718 10 -4718 1z m776
-912 c134 -69 244 -126 244 -127 0 -1 -35 -72 -78 -157 -175 -346 -235 -639
-236 -1150 -1 -234 9 -396 30 -502 5 -27 7 -28 77 -28 322 0 731 160 1010 393
26 22 49 38 52 35 4 -4 -109 -618 -119 -645 -3 -6 -14 -9 -25 -6 -13 3 -21 1
-21 -7 0 -8 -8 -10 -24 -6 -14 3 -28 1 -31 -5 -4 -6 -19 -7 -36 -4 -19 5 -29
3 -29 -5 0 -9 -12 -11 -41 -6 -22 4 -46 3 -52 -1 -10 -7 -134 -12 -237 -11
-14 0 -67 0 -117 -1 -56 0 -93 3 -93 9 0 6 -16 8 -40 4 -29 -5 -40 -3 -40 6 0
8 -8 10 -25 6 -16 -4 -25 -2 -25 5 0 7 -9 9 -25 5 -16 -4 -25 -2 -25 5 0 6 -9
9 -20 6 -11 -3 -23 -1 -26 4 -3 5 -14 9 -25 9 -23 0 -24 -14 -3 -115 9 -42 13
-79 9 -83 -9 -9 -47 42 -112 151 l-58 98 -109 55 c-112 56 -243 131 -250 143
-3 4 56 -2 130 -13 73 -11 136 -17 139 -14 3 3 -8 36 -24 74 -66 156 -132 378
-166 560 -52 286 -46 661 16 968 36 181 131 476 153 476 5 0 118 -57 252 -126z
m2704 16 l71 -98 62 15 c208 50 245 55 438 60 200 6 330 -4 479 -34 41 -8 79
-19 84 -23 12 -12 -217 -560 -234 -560 -4 0 -43 16 -86 36 -101 46 -222 86
-234 79 -6 -3 -10 -1 -10 6 0 6 -8 9 -20 6 -11 -3 -20 -1 -20 5 0 6 -11 7 -25
4 -14 -4 -25 -2 -25 4 0 5 -13 7 -29 4 -16 -3 -31 -1 -35 4 -3 6 -24 8 -46 5
-26 -4 -40 -2 -40 6 0 6 -11 11 -24 11 -23 0 -23 -1 30 -132 68 -170 125 -367
169 -582 54 -272 103 -717 80 -735 -21 -16 -603 -311 -614 -311 -7 0 -6 13 5
38 107 252 174 560 189 872 11 212 -20 593 -65 795 l-11 50 -62 -1 c-34 0 -70
-4 -80 -8 -10 -5 -35 -6 -57 -2 -24 4 -41 2 -46 -5 -4 -7 -20 -9 -40 -6 -19 3
-37 1 -40 -5 -4 -5 -19 -7 -35 -4 -17 3 -29 1 -29 -5 0 -7 -11 -8 -30 -4 -20
4 -30 3 -30 -5 0 -8 -9 -10 -25 -6 -15 4 -25 2 -25 -4 0 -7 -8 -9 -20 -5 -12
4 -20 2 -20 -5 0 -8 -9 -10 -25 -6 -14 4 -25 2 -25 -3 0 -5 -9 -7 -20 -4 -11
3 -20 1 -20 -5 0 -6 -9 -8 -20 -5 -12 3 -20 0 -20 -6 0 -7 -4 -10 -9 -7 -5 3
-48 -8 -97 -24 -48 -16 -90 -28 -92 -26 -6 6 166 158 246 217 142 104 330 209
465 259 31 12 57 25 57 29 0 4 -18 53 -40 110 -61 156 -54 158 50 11z m-904
53 c-80 -259 -99 -856 -40 -1253 38 -259 122 -509 239 -710 25 -44 45 -83 45
-87 0 -9 -479 -253 -496 -253 -30 0 -147 405 -179 620 -22 149 -31 496 -16
626 34 299 123 569 269 824 91 158 198 299 178 233z"/>
<path d="M5763 3817 c-3 -5 -18 -5 -34 -2 -20 5 -29 3 -29 -6 0 -8 -11 -10
-35 -6 -22 4 -35 2 -35 -5 0 -7 -14 -8 -40 -4 -27 4 -40 3 -40 -5 0 -7 -12 -9
-34 -5 -21 4 -37 2 -41 -4 -4 -6 -20 -8 -41 -4 -24 4 -34 3 -34 -6 0 -9 -11
-10 -35 -6 -24 5 -35 3 -35 -5 0 -7 -10 -9 -30 -5 -18 3 -30 1 -30 -5 0 -7
-11 -8 -30 -4 -20 4 -30 3 -30 -5 0 -7 -8 -9 -19 -5 -11 3 -22 1 -26 -5 -3 -6
-10 -8 -15 -5 -10 6 -153 -39 -197 -63 -22 -12 -97 -107 -238 -302 -114 -157
-220 -302 -236 -322 -28 -35 -29 -41 -29 -140 0 -144 30 -232 187 -554 97
-198 135 -266 155 -278 69 -42 172 -135 227 -204 113 -143 168 -279 178 -442
12 -193 167 -580 213 -534 6 6 12 79 15 163 5 128 9 158 24 180 30 42 49 95
71 203 23 110 58 209 76 215 5 2 18 -24 28 -57 10 -33 65 -153 122 -266 57
-113 104 -212 104 -220 0 -19 25 -18 45 3 25 25 34 55 41 146 5 65 11 87 29
107 39 43 54 85 70 191 23 151 72 226 111 170 18 -25 75 -29 98 -6 17 18 22
33 31 97 4 34 16 60 42 90 20 24 60 78 90 120 30 43 75 98 99 124 33 33 75
103 150 250 121 236 158 336 151 407 -6 64 -63 176 -138 267 -132 162 -189
271 -189 363 l0 44 -151 126 c-150 124 -267 197 -323 200 -14 1 -26 5 -26 10
0 4 -11 5 -25 1 -14 -3 -25 -2 -25 2 0 11 -160 12 -167 1z m-101 -816 c20 -10
75 -49 122 -87 102 -82 105 -94 51 -207 -19 -41 -39 -95 -44 -121 -10 -57 -32
-83 -91 -109 -47 -21 -200 -32 -200 -14 0 5 -11 6 -24 3 -13 -3 -26 -3 -28 2
-2 4 -21 16 -43 27 -53 26 -131 104 -137 137 -11 60 79 190 214 308 100 87
118 93 180 61z"/>
<path d="M1665 3570 c-8 -13 -7 -614 1 -636 16 -43 66 -93 126 -124 283 -149
453 -374 528 -694 25 -108 55 -399 75 -721 9 -143 18 -284 21 -313 8 -73 38
-105 134 -139 66 -24 90 -27 200 -27 196 0 316 38 346 109 31 76 -14 698 -71
969 -74 356 -207 665 -391 913 -78 105 -259 286 -364 362 -147 109 -446 271
-471 255 -5 -3 -9 -1 -9 3 0 11 -60 34 -71 27 -5 -3 -9 -1 -9 4 0 13 -38 23
-45 12z"/>
<path d="M3768 3545 c-127 -44 -413 -193 -433 -225 -3 -4 23 -68 58 -142 35
-73 94 -199 133 -280 51 -110 73 -148 87 -148 30 0 150 66 183 102 18 18 41
51 53 73 20 38 21 54 21 342 0 347 11 318 -102 278z"/>
<path d="M1810 2390 c0 -16 48 -109 83 -160 37 -55 367 -391 378 -385 10 7 1
79 -18 140 -51 165 -168 294 -339 376 -86 41 -104 46 -104 29z"/>
</g>
</svg>
